<svg xmlns="http://www.w3.org/2000/svg" viewBox="0 0 500 500" fill="rgb(122, 253, 210)">
  <g transform="rotate(90)" transform-origin="center">
    <path d="M265.42 348.37c-11.16-15.03-4.22-34.89-6.17-52.12-33.98 4.4-68.01 8.41-102.21 10.74-5.88-.55-23.12 4.34-25.53-.88-6.84-10.87-6.19-24.51-3.12-24.75 45.25-3.6 58.62-3.95 119.82-11.9 4.95.06 12.13-3.38 15.41 1.7 7.93 13.07 5.99 29.29 7.01 43.95 25.93-19.66 51.25-40.36 79.17-57.17-13.47-15.01-29.4-28.54-44.6-41.48l.46.4c-2.67-2.37-5.4-4.75-8.06-7.12l.39.34c-12.57-9.66-20.48-25.2-34.4-32.82.72 14.51.33 29.04.41 43.57-1.03 4.74 3.46 19.11-4.76 17.35-27.98-3.41-55.76-8.3-83.76-11.62-7.33-2-30.82-.88-32.86-8.14-1.11-2.65-3.97-11.06-.23-12.11 9.65 1.99 19.63 1.98 29.45 2.76 27.36 1.37 54.64 4.5 82.06 4.75-.39-15.08.02-30.18-.76-45.24-.92-13.55-2.58-25.4 13.91-12.64 10.32 9.55 18.86 20.94 29.62 30.06 22.69 18.67 44.25 38.52 63.96 60.3 2.27 2.5 6.3 1.02 7.89 4.36 3.31 4.99 4.83 11.11 5.28 17.04.02 2.36.31 5.42-1.42 7.28-7.17 4.95-14.56 9.53-21.93 14.15-27.65 17.35-28.41 20.89-64.11 46.39-4.75 2.01-17.57 18.49-20.92 12.87Z"></path>
  </g>
</svg>
